<mxfile host="app.diagrams.net" modified="2022-05-06T13:28:46.686Z" agent="5.0 (Macintosh; Intel Mac OS X 10_15_7) AppleWebKit/537.36 (KHTML, like Gecko) Chrome/100.0.4896.127 Safari/537.36" etag="2EX3EcLwA_9tjyV0jQCx" version="16.2.6" type="github">
  <diagram id="FiJuTs6y5XpOKyzrgUDw" name="Page-1">
    <mxGraphModel dx="2125" dy="2057" grid="1" gridSize="10" guides="1" tooltips="1" connect="1" arrows="1" fold="1" page="1" pageScale="1" pageWidth="827" pageHeight="1169" math="0" shadow="0">
      <root>
        <mxCell id="0" />
        <mxCell id="1" parent="0" />
        <mxCell id="m3ZcnLC1-LOeYScbA6cV-256" value="" style="rounded=0;whiteSpace=wrap;html=1;strokeColor=#FFFFFF;" vertex="1" parent="1">
          <mxGeometry x="-40" y="-190" width="800" height="450" as="geometry" />
        </mxCell>
        <mxCell id="m3ZcnLC1-LOeYScbA6cV-1" value="BPD" style="swimlane;childLayout=stackLayout;resizeParent=1;resizeParentMax=0;horizontal=0;startSize=20;horizontalStack=0;fillColor=#dae8fc;strokeColor=#6c8ebf;" vertex="1" parent="1">
          <mxGeometry x="10" y="317" width="817" height="848" as="geometry" />
        </mxCell>
        <mxCell id="m3ZcnLC1-LOeYScbA6cV-2" value="注册组件" style="swimlane;startSize=20;horizontal=0;fillColor=#dae8fc;strokeColor=#6c8ebf;" vertex="1" parent="m3ZcnLC1-LOeYScbA6cV-1">
          <mxGeometry x="20" width="797" height="268" as="geometry" />
        </mxCell>
        <mxCell id="m3ZcnLC1-LOeYScbA6cV-63" value="" style="edgeStyle=orthogonalEdgeStyle;rounded=0;orthogonalLoop=1;jettySize=auto;html=1;" edge="1" parent="m3ZcnLC1-LOeYScbA6cV-2" source="m3ZcnLC1-LOeYScbA6cV-5" target="m3ZcnLC1-LOeYScbA6cV-7">
          <mxGeometry relative="1" as="geometry" />
        </mxCell>
        <mxCell id="m3ZcnLC1-LOeYScbA6cV-5" value="" style="ellipse;whiteSpace=wrap;html=1;aspect=fixed;fillColor=#97D077;strokeColor=#000000;" vertex="1" parent="m3ZcnLC1-LOeYScbA6cV-2">
          <mxGeometry x="60" y="80" width="20" height="20" as="geometry" />
        </mxCell>
        <mxCell id="m3ZcnLC1-LOeYScbA6cV-64" value="" style="edgeStyle=orthogonalEdgeStyle;rounded=0;orthogonalLoop=1;jettySize=auto;html=1;" edge="1" parent="m3ZcnLC1-LOeYScbA6cV-2" source="m3ZcnLC1-LOeYScbA6cV-7" target="m3ZcnLC1-LOeYScbA6cV-21">
          <mxGeometry relative="1" as="geometry" />
        </mxCell>
        <mxCell id="m3ZcnLC1-LOeYScbA6cV-7" value="注册组件" style="rounded=1;whiteSpace=wrap;html=1;fillColor=#97D077;" vertex="1" parent="m3ZcnLC1-LOeYScbA6cV-2">
          <mxGeometry x="110" y="70" width="96" height="40" as="geometry" />
        </mxCell>
        <mxCell id="m3ZcnLC1-LOeYScbA6cV-65" value="" style="edgeStyle=orthogonalEdgeStyle;rounded=0;orthogonalLoop=1;jettySize=auto;html=1;" edge="1" parent="m3ZcnLC1-LOeYScbA6cV-2" source="m3ZcnLC1-LOeYScbA6cV-21" target="m3ZcnLC1-LOeYScbA6cV-23">
          <mxGeometry relative="1" as="geometry" />
        </mxCell>
        <mxCell id="m3ZcnLC1-LOeYScbA6cV-21" value="验证material_name" style="rounded=1;whiteSpace=wrap;html=1;fillColor=#97D077;" vertex="1" parent="m3ZcnLC1-LOeYScbA6cV-2">
          <mxGeometry x="243" y="70" width="96" height="40" as="geometry" />
        </mxCell>
        <mxCell id="m3ZcnLC1-LOeYScbA6cV-67" value="N" style="edgeStyle=orthogonalEdgeStyle;rounded=0;orthogonalLoop=1;jettySize=auto;html=1;" edge="1" parent="m3ZcnLC1-LOeYScbA6cV-2" source="m3ZcnLC1-LOeYScbA6cV-23" target="m3ZcnLC1-LOeYScbA6cV-24">
          <mxGeometry relative="1" as="geometry" />
        </mxCell>
        <mxCell id="m3ZcnLC1-LOeYScbA6cV-68" style="edgeStyle=orthogonalEdgeStyle;rounded=0;orthogonalLoop=1;jettySize=auto;html=1;entryX=0.5;entryY=0;entryDx=0;entryDy=0;" edge="1" parent="m3ZcnLC1-LOeYScbA6cV-2" source="m3ZcnLC1-LOeYScbA6cV-23" target="m3ZcnLC1-LOeYScbA6cV-7">
          <mxGeometry relative="1" as="geometry">
            <Array as="points">
              <mxPoint x="398" y="50" />
              <mxPoint x="158" y="50" />
            </Array>
          </mxGeometry>
        </mxCell>
        <mxCell id="m3ZcnLC1-LOeYScbA6cV-69" value="Y" style="edgeLabel;html=1;align=center;verticalAlign=middle;resizable=0;points=[];" vertex="1" connectable="0" parent="m3ZcnLC1-LOeYScbA6cV-68">
          <mxGeometry x="-0.144" y="3" relative="1" as="geometry">
            <mxPoint as="offset" />
          </mxGeometry>
        </mxCell>
        <mxCell id="m3ZcnLC1-LOeYScbA6cV-23" value="" style="rhombus;whiteSpace=wrap;html=1;strokeColor=#000000;fillColor=#FFB570;" vertex="1" parent="m3ZcnLC1-LOeYScbA6cV-2">
          <mxGeometry x="373.5" y="65" width="49.5" height="50" as="geometry" />
        </mxCell>
        <mxCell id="m3ZcnLC1-LOeYScbA6cV-74" style="edgeStyle=orthogonalEdgeStyle;rounded=0;orthogonalLoop=1;jettySize=auto;html=1;entryX=0.011;entryY=0.782;entryDx=0;entryDy=0;entryPerimeter=0;" edge="1" parent="m3ZcnLC1-LOeYScbA6cV-2" source="m3ZcnLC1-LOeYScbA6cV-24" target="m3ZcnLC1-LOeYScbA6cV-26">
          <mxGeometry relative="1" as="geometry" />
        </mxCell>
        <mxCell id="m3ZcnLC1-LOeYScbA6cV-24" value="生成material_record" style="rounded=1;whiteSpace=wrap;html=1;fillColor=#97D077;" vertex="1" parent="m3ZcnLC1-LOeYScbA6cV-2">
          <mxGeometry x="463" y="70" width="96" height="40" as="geometry" />
        </mxCell>
        <mxCell id="m3ZcnLC1-LOeYScbA6cV-26" value="" style="shape=note;whiteSpace=wrap;html=1;backgroundOutline=1;darkOpacity=0.05;strokeColor=#000000;fillColor=#FFF4C3;size=18;" vertex="1" parent="m3ZcnLC1-LOeYScbA6cV-2">
          <mxGeometry x="603" y="47.5" width="47" height="55" as="geometry" />
        </mxCell>
        <mxCell id="m3ZcnLC1-LOeYScbA6cV-27" value="&lt;span style=&quot;font-size: 14px&quot;&gt;material_data&lt;/span&gt;&lt;br&gt;(create)" style="text;html=1;strokeColor=none;fillColor=none;align=center;verticalAlign=middle;whiteSpace=wrap;rounded=0;" vertex="1" parent="m3ZcnLC1-LOeYScbA6cV-2">
          <mxGeometry x="583" y="102.5" width="87" height="30" as="geometry" />
        </mxCell>
        <mxCell id="m3ZcnLC1-LOeYScbA6cV-66" value="是否已存在？" style="text;html=1;strokeColor=none;fillColor=none;align=center;verticalAlign=middle;whiteSpace=wrap;rounded=0;" vertex="1" parent="m3ZcnLC1-LOeYScbA6cV-2">
          <mxGeometry x="357.38" y="115" width="81.75" height="30" as="geometry" />
        </mxCell>
        <mxCell id="m3ZcnLC1-LOeYScbA6cV-3" value="修改组件" style="swimlane;startSize=20;horizontal=0;fillColor=#dae8fc;strokeColor=#6c8ebf;" vertex="1" parent="m3ZcnLC1-LOeYScbA6cV-1">
          <mxGeometry x="20" y="268" width="797" height="290" as="geometry" />
        </mxCell>
        <mxCell id="m3ZcnLC1-LOeYScbA6cV-79" value="" style="edgeStyle=orthogonalEdgeStyle;rounded=0;orthogonalLoop=1;jettySize=auto;html=1;" edge="1" parent="m3ZcnLC1-LOeYScbA6cV-3" source="m3ZcnLC1-LOeYScbA6cV-28" target="m3ZcnLC1-LOeYScbA6cV-29">
          <mxGeometry relative="1" as="geometry" />
        </mxCell>
        <mxCell id="m3ZcnLC1-LOeYScbA6cV-28" value="本地组件开发" style="rounded=1;whiteSpace=wrap;html=1;fillColor=#97D077;" vertex="1" parent="m3ZcnLC1-LOeYScbA6cV-3">
          <mxGeometry x="110" y="50" width="96" height="40" as="geometry" />
        </mxCell>
        <mxCell id="m3ZcnLC1-LOeYScbA6cV-80" value="" style="edgeStyle=orthogonalEdgeStyle;rounded=0;orthogonalLoop=1;jettySize=auto;html=1;" edge="1" parent="m3ZcnLC1-LOeYScbA6cV-3" source="m3ZcnLC1-LOeYScbA6cV-29" target="m3ZcnLC1-LOeYScbA6cV-30">
          <mxGeometry relative="1" as="geometry" />
        </mxCell>
        <mxCell id="m3ZcnLC1-LOeYScbA6cV-29" value="git commit" style="rounded=1;whiteSpace=wrap;html=1;fillColor=#97D077;" vertex="1" parent="m3ZcnLC1-LOeYScbA6cV-3">
          <mxGeometry x="243" y="50" width="96" height="40" as="geometry" />
        </mxCell>
        <mxCell id="m3ZcnLC1-LOeYScbA6cV-81" value="" style="edgeStyle=orthogonalEdgeStyle;rounded=0;orthogonalLoop=1;jettySize=auto;html=1;" edge="1" parent="m3ZcnLC1-LOeYScbA6cV-3" source="m3ZcnLC1-LOeYScbA6cV-30" target="m3ZcnLC1-LOeYScbA6cV-31">
          <mxGeometry relative="1" as="geometry" />
        </mxCell>
        <mxCell id="m3ZcnLC1-LOeYScbA6cV-30" value="生成doc" style="rounded=1;whiteSpace=wrap;html=1;fillColor=#97D077;" vertex="1" parent="m3ZcnLC1-LOeYScbA6cV-3">
          <mxGeometry x="373" y="50" width="96" height="40" as="geometry" />
        </mxCell>
        <mxCell id="m3ZcnLC1-LOeYScbA6cV-82" style="edgeStyle=orthogonalEdgeStyle;rounded=0;orthogonalLoop=1;jettySize=auto;html=1;entryX=0.5;entryY=0;entryDx=0;entryDy=0;" edge="1" parent="m3ZcnLC1-LOeYScbA6cV-3" source="m3ZcnLC1-LOeYScbA6cV-31" target="m3ZcnLC1-LOeYScbA6cV-32">
          <mxGeometry relative="1" as="geometry" />
        </mxCell>
        <mxCell id="m3ZcnLC1-LOeYScbA6cV-31" value="merge 分支" style="rounded=1;whiteSpace=wrap;html=1;fillColor=#97D077;" vertex="1" parent="m3ZcnLC1-LOeYScbA6cV-3">
          <mxGeometry x="503" y="50" width="96" height="40" as="geometry" />
        </mxCell>
        <mxCell id="m3ZcnLC1-LOeYScbA6cV-83" value="" style="edgeStyle=orthogonalEdgeStyle;rounded=0;orthogonalLoop=1;jettySize=auto;html=1;" edge="1" parent="m3ZcnLC1-LOeYScbA6cV-3" source="m3ZcnLC1-LOeYScbA6cV-32" target="m3ZcnLC1-LOeYScbA6cV-54">
          <mxGeometry relative="1" as="geometry" />
        </mxCell>
        <mxCell id="m3ZcnLC1-LOeYScbA6cV-32" value="" style="rhombus;whiteSpace=wrap;html=1;strokeColor=#000000;fillColor=#FFB570;" vertex="1" parent="m3ZcnLC1-LOeYScbA6cV-3">
          <mxGeometry x="643" y="157" width="49.5" height="50" as="geometry" />
        </mxCell>
        <mxCell id="m3ZcnLC1-LOeYScbA6cV-34" value="" style="shape=note;whiteSpace=wrap;html=1;backgroundOutline=1;darkOpacity=0.05;strokeColor=#000000;fillColor=#FFF4C3;size=18;" vertex="1" parent="m3ZcnLC1-LOeYScbA6cV-3">
          <mxGeometry x="390" y="150" width="47" height="55" as="geometry" />
        </mxCell>
        <mxCell id="m3ZcnLC1-LOeYScbA6cV-35" value="&lt;span style=&quot;font-size: 14px&quot;&gt;material_snapshot&lt;/span&gt;&lt;br&gt;(create)" style="text;html=1;strokeColor=none;fillColor=none;align=center;verticalAlign=middle;whiteSpace=wrap;rounded=0;" vertex="1" parent="m3ZcnLC1-LOeYScbA6cV-3">
          <mxGeometry x="370" y="207" width="87" height="30" as="geometry" />
        </mxCell>
        <mxCell id="m3ZcnLC1-LOeYScbA6cV-36" value="分支判断dev/master" style="text;html=1;strokeColor=none;fillColor=none;align=center;verticalAlign=middle;whiteSpace=wrap;rounded=0;" vertex="1" parent="m3ZcnLC1-LOeYScbA6cV-3">
          <mxGeometry x="700" y="167.5" width="60" height="30" as="geometry" />
        </mxCell>
        <mxCell id="m3ZcnLC1-LOeYScbA6cV-88" value="" style="edgeStyle=orthogonalEdgeStyle;rounded=0;orthogonalLoop=1;jettySize=auto;html=1;entryX=1.011;entryY=0.555;entryDx=0;entryDy=0;entryPerimeter=0;exitX=0;exitY=0.451;exitDx=0;exitDy=0;exitPerimeter=0;" edge="1" parent="m3ZcnLC1-LOeYScbA6cV-3" source="m3ZcnLC1-LOeYScbA6cV-54" target="m3ZcnLC1-LOeYScbA6cV-34">
          <mxGeometry relative="1" as="geometry" />
        </mxCell>
        <mxCell id="m3ZcnLC1-LOeYScbA6cV-54" value="生成CDN地址" style="rounded=1;whiteSpace=wrap;html=1;fillColor=#97D077;" vertex="1" parent="m3ZcnLC1-LOeYScbA6cV-3">
          <mxGeometry x="503" y="162.5" width="96" height="40" as="geometry" />
        </mxCell>
        <mxCell id="m3ZcnLC1-LOeYScbA6cV-178" value="" style="shape=note;whiteSpace=wrap;html=1;backgroundOutline=1;darkOpacity=0.05;strokeColor=#000000;fillColor=#FFF4C3;size=18;" vertex="1" parent="m3ZcnLC1-LOeYScbA6cV-3">
          <mxGeometry x="264" y="145" width="47" height="60" as="geometry" />
        </mxCell>
        <mxCell id="m3ZcnLC1-LOeYScbA6cV-179" value="&lt;span style=&quot;font-size: 14px&quot;&gt;material_data&lt;/span&gt;&lt;br&gt;(update)" style="text;html=1;strokeColor=none;fillColor=none;align=center;verticalAlign=middle;whiteSpace=wrap;rounded=0;" vertex="1" parent="m3ZcnLC1-LOeYScbA6cV-3">
          <mxGeometry x="244" y="205" width="87" height="35" as="geometry" />
        </mxCell>
        <mxCell id="m3ZcnLC1-LOeYScbA6cV-4" value="新增场景" style="swimlane;startSize=20;horizontal=0;fillColor=#dae8fc;strokeColor=#6c8ebf;" vertex="1" parent="m3ZcnLC1-LOeYScbA6cV-1">
          <mxGeometry x="20" y="558" width="797" height="160" as="geometry" />
        </mxCell>
        <mxCell id="m3ZcnLC1-LOeYScbA6cV-89" value="" style="edgeStyle=orthogonalEdgeStyle;rounded=0;orthogonalLoop=1;jettySize=auto;html=1;" edge="1" parent="m3ZcnLC1-LOeYScbA6cV-4" source="m3ZcnLC1-LOeYScbA6cV-37" target="m3ZcnLC1-LOeYScbA6cV-42">
          <mxGeometry relative="1" as="geometry" />
        </mxCell>
        <mxCell id="m3ZcnLC1-LOeYScbA6cV-37" value="场景编辑" style="rounded=1;whiteSpace=wrap;html=1;fillColor=#97D077;" vertex="1" parent="m3ZcnLC1-LOeYScbA6cV-4">
          <mxGeometry x="93" y="47" width="96" height="40" as="geometry" />
        </mxCell>
        <mxCell id="m3ZcnLC1-LOeYScbA6cV-90" value="" style="edgeStyle=orthogonalEdgeStyle;rounded=0;orthogonalLoop=1;jettySize=auto;html=1;entryX=-0.011;entryY=0.745;entryDx=0;entryDy=0;entryPerimeter=0;" edge="1" parent="m3ZcnLC1-LOeYScbA6cV-4" source="m3ZcnLC1-LOeYScbA6cV-42" target="m3ZcnLC1-LOeYScbA6cV-45">
          <mxGeometry relative="1" as="geometry">
            <Array as="points">
              <mxPoint x="376" y="67" />
              <mxPoint x="376" y="66" />
            </Array>
          </mxGeometry>
        </mxCell>
        <mxCell id="m3ZcnLC1-LOeYScbA6cV-42" value="生成场景预览图" style="rounded=1;whiteSpace=wrap;html=1;fillColor=#97D077;" vertex="1" parent="m3ZcnLC1-LOeYScbA6cV-4">
          <mxGeometry x="243" y="47" width="96" height="40" as="geometry" />
        </mxCell>
        <mxCell id="m3ZcnLC1-LOeYScbA6cV-45" value="" style="shape=note;whiteSpace=wrap;html=1;backgroundOutline=1;darkOpacity=0.05;strokeColor=#000000;fillColor=#FFF4C3;size=18;" vertex="1" parent="m3ZcnLC1-LOeYScbA6cV-4">
          <mxGeometry x="413" y="25.5" width="47" height="55" as="geometry" />
        </mxCell>
        <mxCell id="m3ZcnLC1-LOeYScbA6cV-46" value="&lt;span style=&quot;font-size: 14px&quot;&gt;material_scene&lt;/span&gt;&lt;br&gt;(create)" style="text;html=1;strokeColor=none;fillColor=none;align=center;verticalAlign=middle;whiteSpace=wrap;rounded=0;" vertex="1" parent="m3ZcnLC1-LOeYScbA6cV-4">
          <mxGeometry x="393" y="80.5" width="87" height="30" as="geometry" />
        </mxCell>
        <mxCell id="m3ZcnLC1-LOeYScbA6cV-55" value="场景修改" style="swimlane;startSize=20;horizontal=0;fillColor=#dae8fc;strokeColor=#6c8ebf;" vertex="1" parent="m3ZcnLC1-LOeYScbA6cV-1">
          <mxGeometry x="20" y="718" width="797" height="130" as="geometry" />
        </mxCell>
        <mxCell id="m3ZcnLC1-LOeYScbA6cV-94" value="" style="edgeStyle=orthogonalEdgeStyle;rounded=0;orthogonalLoop=1;jettySize=auto;html=1;" edge="1" parent="m3ZcnLC1-LOeYScbA6cV-55" source="m3ZcnLC1-LOeYScbA6cV-56" target="m3ZcnLC1-LOeYScbA6cV-57">
          <mxGeometry relative="1" as="geometry" />
        </mxCell>
        <mxCell id="m3ZcnLC1-LOeYScbA6cV-56" value="场景修改" style="rounded=1;whiteSpace=wrap;html=1;fillColor=#97D077;" vertex="1" parent="m3ZcnLC1-LOeYScbA6cV-55">
          <mxGeometry x="93" y="47" width="96" height="40" as="geometry" />
        </mxCell>
        <mxCell id="m3ZcnLC1-LOeYScbA6cV-95" value="" style="edgeStyle=orthogonalEdgeStyle;rounded=0;orthogonalLoop=1;jettySize=auto;html=1;entryX=0.032;entryY=0.782;entryDx=0;entryDy=0;entryPerimeter=0;" edge="1" parent="m3ZcnLC1-LOeYScbA6cV-55" source="m3ZcnLC1-LOeYScbA6cV-57" target="m3ZcnLC1-LOeYScbA6cV-60">
          <mxGeometry relative="1" as="geometry" />
        </mxCell>
        <mxCell id="m3ZcnLC1-LOeYScbA6cV-57" value="生成场景预览图" style="rounded=1;whiteSpace=wrap;html=1;fillColor=#97D077;" vertex="1" parent="m3ZcnLC1-LOeYScbA6cV-55">
          <mxGeometry x="243" y="47" width="96" height="40" as="geometry" />
        </mxCell>
        <mxCell id="m3ZcnLC1-LOeYScbA6cV-60" value="" style="shape=note;whiteSpace=wrap;html=1;backgroundOutline=1;darkOpacity=0.05;strokeColor=#000000;fillColor=#FFF4C3;size=18;" vertex="1" parent="m3ZcnLC1-LOeYScbA6cV-55">
          <mxGeometry x="413" y="24.5" width="47" height="55" as="geometry" />
        </mxCell>
        <mxCell id="m3ZcnLC1-LOeYScbA6cV-61" value="&lt;span style=&quot;font-size: 14px&quot;&gt;material_scene&lt;/span&gt;&lt;br&gt;(update)" style="text;html=1;strokeColor=none;fillColor=none;align=center;verticalAlign=middle;whiteSpace=wrap;rounded=0;" vertex="1" parent="m3ZcnLC1-LOeYScbA6cV-55">
          <mxGeometry x="393" y="79.5" width="87" height="30" as="geometry" />
        </mxCell>
        <mxCell id="m3ZcnLC1-LOeYScbA6cV-78" style="edgeStyle=orthogonalEdgeStyle;rounded=0;orthogonalLoop=1;jettySize=auto;html=1;entryX=0;entryY=0.5;entryDx=0;entryDy=0;" edge="1" parent="m3ZcnLC1-LOeYScbA6cV-1" target="m3ZcnLC1-LOeYScbA6cV-28">
          <mxGeometry relative="1" as="geometry">
            <mxPoint x="531" y="108" as="sourcePoint" />
            <mxPoint x="130" y="258" as="targetPoint" />
            <Array as="points">
              <mxPoint x="531" y="158" />
              <mxPoint x="110" y="158" />
              <mxPoint x="110" y="338" />
            </Array>
          </mxGeometry>
        </mxCell>
        <mxCell id="m3ZcnLC1-LOeYScbA6cV-102" value="物料 (material_data)" style="swimlane;childLayout=stackLayout;horizontal=1;startSize=30;horizontalStack=0;rounded=1;fontSize=14;fontStyle=0;strokeWidth=2;resizeParent=0;resizeLast=1;shadow=0;dashed=0;align=center;fillColor=#FFF4C3;" vertex="1" parent="1">
          <mxGeometry x="280" y="-170" width="160" height="260" as="geometry" />
        </mxCell>
        <mxCell id="m3ZcnLC1-LOeYScbA6cV-110" value="" style="shape=table;startSize=0;container=1;collapsible=1;childLayout=tableLayout;fixedRows=1;rowLines=0;fontStyle=0;align=center;resizeLast=1;strokeColor=none;fillColor=none;collapsible=0;rounded=1;" vertex="1" parent="m3ZcnLC1-LOeYScbA6cV-102">
          <mxGeometry y="30" width="160" height="230" as="geometry" />
        </mxCell>
        <mxCell id="m3ZcnLC1-LOeYScbA6cV-111" value="" style="shape=tableRow;horizontal=0;startSize=0;swimlaneHead=0;swimlaneBody=0;fillColor=none;collapsible=0;dropTarget=0;points=[[0,0.5],[1,0.5]];portConstraint=eastwest;top=0;left=0;right=0;bottom=0;rounded=1;strokeColor=#000000;" vertex="1" parent="m3ZcnLC1-LOeYScbA6cV-110">
          <mxGeometry width="160" height="30" as="geometry" />
        </mxCell>
        <mxCell id="m3ZcnLC1-LOeYScbA6cV-112" value="ID" style="shape=partialRectangle;connectable=0;fillColor=none;top=0;left=0;bottom=0;right=0;fontStyle=0;overflow=hidden;rounded=1;strokeColor=#000000;" vertex="1" parent="m3ZcnLC1-LOeYScbA6cV-111">
          <mxGeometry width="50" height="30" as="geometry">
            <mxRectangle width="50" height="30" as="alternateBounds" />
          </mxGeometry>
        </mxCell>
        <mxCell id="m3ZcnLC1-LOeYScbA6cV-113" value="bigint(20)" style="shape=partialRectangle;connectable=0;fillColor=none;top=0;left=0;bottom=0;right=0;align=left;spacingLeft=6;fontStyle=0;overflow=hidden;rounded=1;strokeColor=#000000;" vertex="1" parent="m3ZcnLC1-LOeYScbA6cV-111">
          <mxGeometry x="50" width="110" height="30" as="geometry">
            <mxRectangle width="110" height="30" as="alternateBounds" />
          </mxGeometry>
        </mxCell>
        <mxCell id="m3ZcnLC1-LOeYScbA6cV-181" value="" style="shape=tableRow;horizontal=0;startSize=0;swimlaneHead=0;swimlaneBody=0;fillColor=none;collapsible=0;dropTarget=0;points=[[0,0.5],[1,0.5]];portConstraint=eastwest;top=0;left=0;right=0;bottom=0;rounded=1;strokeColor=#000000;" vertex="1" parent="m3ZcnLC1-LOeYScbA6cV-110">
          <mxGeometry y="30" width="160" height="30" as="geometry" />
        </mxCell>
        <mxCell id="m3ZcnLC1-LOeYScbA6cV-182" value="version" style="shape=partialRectangle;connectable=0;fillColor=none;top=0;left=0;bottom=0;right=0;fontStyle=0;overflow=hidden;rounded=1;strokeColor=#000000;" vertex="1" parent="m3ZcnLC1-LOeYScbA6cV-181">
          <mxGeometry width="50" height="30" as="geometry">
            <mxRectangle width="50" height="30" as="alternateBounds" />
          </mxGeometry>
        </mxCell>
        <mxCell id="m3ZcnLC1-LOeYScbA6cV-183" value="varchar(64)" style="shape=partialRectangle;connectable=0;fillColor=none;top=0;left=0;bottom=0;right=0;align=left;spacingLeft=6;fontStyle=0;overflow=hidden;rounded=1;strokeColor=#000000;" vertex="1" parent="m3ZcnLC1-LOeYScbA6cV-181">
          <mxGeometry x="50" width="110" height="30" as="geometry">
            <mxRectangle width="110" height="30" as="alternateBounds" />
          </mxGeometry>
        </mxCell>
        <mxCell id="m3ZcnLC1-LOeYScbA6cV-201" value="" style="shape=tableRow;horizontal=0;startSize=0;swimlaneHead=0;swimlaneBody=0;fillColor=none;collapsible=0;dropTarget=0;points=[[0,0.5],[1,0.5]];portConstraint=eastwest;top=0;left=0;right=0;bottom=0;rounded=1;strokeColor=#000000;" vertex="1" parent="m3ZcnLC1-LOeYScbA6cV-110">
          <mxGeometry y="60" width="160" height="30" as="geometry" />
        </mxCell>
        <mxCell id="m3ZcnLC1-LOeYScbA6cV-202" value="name" style="shape=partialRectangle;connectable=0;fillColor=none;top=0;left=0;bottom=0;right=0;fontStyle=0;overflow=hidden;rounded=1;strokeColor=#000000;" vertex="1" parent="m3ZcnLC1-LOeYScbA6cV-201">
          <mxGeometry width="50" height="30" as="geometry">
            <mxRectangle width="50" height="30" as="alternateBounds" />
          </mxGeometry>
        </mxCell>
        <mxCell id="m3ZcnLC1-LOeYScbA6cV-203" value="varchar(256)" style="shape=partialRectangle;connectable=0;fillColor=none;top=0;left=0;bottom=0;right=0;align=left;spacingLeft=6;fontStyle=0;overflow=hidden;rounded=1;strokeColor=#000000;" vertex="1" parent="m3ZcnLC1-LOeYScbA6cV-201">
          <mxGeometry x="50" width="110" height="30" as="geometry">
            <mxRectangle width="110" height="30" as="alternateBounds" />
          </mxGeometry>
        </mxCell>
        <mxCell id="m3ZcnLC1-LOeYScbA6cV-205" value="" style="shape=tableRow;horizontal=0;startSize=0;swimlaneHead=0;swimlaneBody=0;fillColor=none;collapsible=0;dropTarget=0;points=[[0,0.5],[1,0.5]];portConstraint=eastwest;top=0;left=0;right=0;bottom=0;rounded=1;strokeColor=#000000;" vertex="1" parent="m3ZcnLC1-LOeYScbA6cV-110">
          <mxGeometry y="90" width="160" height="30" as="geometry" />
        </mxCell>
        <mxCell id="m3ZcnLC1-LOeYScbA6cV-206" value="desc" style="shape=partialRectangle;connectable=0;fillColor=none;top=0;left=0;bottom=0;right=0;fontStyle=0;overflow=hidden;rounded=1;strokeColor=#000000;" vertex="1" parent="m3ZcnLC1-LOeYScbA6cV-205">
          <mxGeometry width="50" height="30" as="geometry">
            <mxRectangle width="50" height="30" as="alternateBounds" />
          </mxGeometry>
        </mxCell>
        <mxCell id="m3ZcnLC1-LOeYScbA6cV-207" value="varchar(256)" style="shape=partialRectangle;connectable=0;fillColor=none;top=0;left=0;bottom=0;right=0;align=left;spacingLeft=6;fontStyle=0;overflow=hidden;rounded=1;strokeColor=#000000;" vertex="1" parent="m3ZcnLC1-LOeYScbA6cV-205">
          <mxGeometry x="50" width="110" height="30" as="geometry">
            <mxRectangle width="110" height="30" as="alternateBounds" />
          </mxGeometry>
        </mxCell>
        <mxCell id="m3ZcnLC1-LOeYScbA6cV-208" value="" style="shape=tableRow;horizontal=0;startSize=0;swimlaneHead=0;swimlaneBody=0;fillColor=none;collapsible=0;dropTarget=0;points=[[0,0.5],[1,0.5]];portConstraint=eastwest;top=0;left=0;right=0;bottom=0;rounded=1;strokeColor=#000000;" vertex="1" parent="m3ZcnLC1-LOeYScbA6cV-110">
          <mxGeometry y="120" width="160" height="30" as="geometry" />
        </mxCell>
        <mxCell id="m3ZcnLC1-LOeYScbA6cV-209" value="ctime" style="shape=partialRectangle;connectable=0;fillColor=none;top=0;left=0;bottom=0;right=0;fontStyle=0;overflow=hidden;rounded=1;strokeColor=#000000;" vertex="1" parent="m3ZcnLC1-LOeYScbA6cV-208">
          <mxGeometry width="50" height="30" as="geometry">
            <mxRectangle width="50" height="30" as="alternateBounds" />
          </mxGeometry>
        </mxCell>
        <mxCell id="m3ZcnLC1-LOeYScbA6cV-210" value="timestamp" style="shape=partialRectangle;connectable=0;fillColor=none;top=0;left=0;bottom=0;right=0;align=left;spacingLeft=6;fontStyle=0;overflow=hidden;rounded=1;strokeColor=#000000;" vertex="1" parent="m3ZcnLC1-LOeYScbA6cV-208">
          <mxGeometry x="50" width="110" height="30" as="geometry">
            <mxRectangle width="110" height="30" as="alternateBounds" />
          </mxGeometry>
        </mxCell>
        <mxCell id="m3ZcnLC1-LOeYScbA6cV-212" value="" style="shape=tableRow;horizontal=0;startSize=0;swimlaneHead=0;swimlaneBody=0;fillColor=none;collapsible=0;dropTarget=0;points=[[0,0.5],[1,0.5]];portConstraint=eastwest;top=0;left=0;right=0;bottom=0;rounded=1;strokeColor=#000000;" vertex="1" parent="m3ZcnLC1-LOeYScbA6cV-110">
          <mxGeometry y="150" width="160" height="30" as="geometry" />
        </mxCell>
        <mxCell id="m3ZcnLC1-LOeYScbA6cV-213" value="utime" style="shape=partialRectangle;connectable=0;fillColor=none;top=0;left=0;bottom=0;right=0;fontStyle=0;overflow=hidden;rounded=1;strokeColor=#000000;" vertex="1" parent="m3ZcnLC1-LOeYScbA6cV-212">
          <mxGeometry width="50" height="30" as="geometry">
            <mxRectangle width="50" height="30" as="alternateBounds" />
          </mxGeometry>
        </mxCell>
        <mxCell id="m3ZcnLC1-LOeYScbA6cV-214" value="timestamp" style="shape=partialRectangle;connectable=0;fillColor=none;top=0;left=0;bottom=0;right=0;align=left;spacingLeft=6;fontStyle=0;overflow=hidden;rounded=1;strokeColor=#000000;" vertex="1" parent="m3ZcnLC1-LOeYScbA6cV-212">
          <mxGeometry x="50" width="110" height="30" as="geometry">
            <mxRectangle width="110" height="30" as="alternateBounds" />
          </mxGeometry>
        </mxCell>
        <mxCell id="m3ZcnLC1-LOeYScbA6cV-216" value="" style="shape=tableRow;horizontal=0;startSize=0;swimlaneHead=0;swimlaneBody=0;fillColor=none;collapsible=0;dropTarget=0;points=[[0,0.5],[1,0.5]];portConstraint=eastwest;top=0;left=0;right=0;bottom=0;rounded=1;strokeColor=#000000;" vertex="1" parent="m3ZcnLC1-LOeYScbA6cV-110">
          <mxGeometry y="180" width="160" height="30" as="geometry" />
        </mxCell>
        <mxCell id="m3ZcnLC1-LOeYScbA6cV-217" value="cuser" style="shape=partialRectangle;connectable=0;fillColor=none;top=0;left=0;bottom=0;right=0;fontStyle=0;overflow=hidden;rounded=1;strokeColor=#000000;" vertex="1" parent="m3ZcnLC1-LOeYScbA6cV-216">
          <mxGeometry width="50" height="30" as="geometry">
            <mxRectangle width="50" height="30" as="alternateBounds" />
          </mxGeometry>
        </mxCell>
        <mxCell id="m3ZcnLC1-LOeYScbA6cV-218" value="varchar(64)" style="shape=partialRectangle;connectable=0;fillColor=none;top=0;left=0;bottom=0;right=0;align=left;spacingLeft=6;fontStyle=0;overflow=hidden;rounded=1;strokeColor=#000000;" vertex="1" parent="m3ZcnLC1-LOeYScbA6cV-216">
          <mxGeometry x="50" width="110" height="30" as="geometry">
            <mxRectangle width="110" height="30" as="alternateBounds" />
          </mxGeometry>
        </mxCell>
        <mxCell id="m3ZcnLC1-LOeYScbA6cV-104" value="版本/快照 (material_snapshot)" style="swimlane;childLayout=stackLayout;horizontal=1;startSize=30;horizontalStack=0;rounded=1;fontSize=14;fontStyle=0;strokeWidth=2;resizeParent=0;resizeLast=1;shadow=0;dashed=0;align=center;fillColor=#FFF4C3;" vertex="1" parent="1">
          <mxGeometry x="-20" y="-170" width="190" height="410" as="geometry" />
        </mxCell>
        <mxCell id="m3ZcnLC1-LOeYScbA6cV-114" value="" style="shape=table;startSize=0;container=1;collapsible=1;childLayout=tableLayout;fixedRows=1;rowLines=0;fontStyle=0;align=center;resizeLast=1;strokeColor=none;fillColor=none;collapsible=0;rounded=1;" vertex="1" parent="m3ZcnLC1-LOeYScbA6cV-104">
          <mxGeometry y="30" width="190" height="380" as="geometry" />
        </mxCell>
        <mxCell id="m3ZcnLC1-LOeYScbA6cV-115" value="" style="shape=tableRow;horizontal=0;startSize=0;swimlaneHead=0;swimlaneBody=0;fillColor=none;collapsible=0;dropTarget=0;points=[[0,0.5],[1,0.5]];portConstraint=eastwest;top=0;left=0;right=0;bottom=0;rounded=1;strokeColor=#000000;" vertex="1" parent="m3ZcnLC1-LOeYScbA6cV-114">
          <mxGeometry width="190" height="30" as="geometry" />
        </mxCell>
        <mxCell id="m3ZcnLC1-LOeYScbA6cV-116" value="ID" style="shape=partialRectangle;connectable=0;fillColor=none;top=0;left=0;bottom=0;right=0;fontStyle=0;overflow=hidden;rounded=1;strokeColor=#000000;" vertex="1" parent="m3ZcnLC1-LOeYScbA6cV-115">
          <mxGeometry width="80" height="30" as="geometry">
            <mxRectangle width="80" height="30" as="alternateBounds" />
          </mxGeometry>
        </mxCell>
        <mxCell id="m3ZcnLC1-LOeYScbA6cV-117" value="bigint(20)" style="shape=partialRectangle;connectable=0;fillColor=none;top=0;left=0;bottom=0;right=0;align=left;spacingLeft=6;fontStyle=0;overflow=hidden;rounded=1;strokeColor=#000000;" vertex="1" parent="m3ZcnLC1-LOeYScbA6cV-115">
          <mxGeometry x="80" width="110" height="30" as="geometry">
            <mxRectangle width="110" height="30" as="alternateBounds" />
          </mxGeometry>
        </mxCell>
        <mxCell id="m3ZcnLC1-LOeYScbA6cV-172" value="" style="shape=tableRow;horizontal=0;startSize=0;swimlaneHead=0;swimlaneBody=0;fillColor=none;collapsible=0;dropTarget=0;points=[[0,0.5],[1,0.5]];portConstraint=eastwest;top=0;left=0;right=0;bottom=0;rounded=1;strokeColor=#000000;" vertex="1" parent="m3ZcnLC1-LOeYScbA6cV-114">
          <mxGeometry y="30" width="190" height="30" as="geometry" />
        </mxCell>
        <mxCell id="m3ZcnLC1-LOeYScbA6cV-173" value="material_id" style="shape=partialRectangle;connectable=0;fillColor=none;top=0;left=0;bottom=0;right=0;fontStyle=0;overflow=hidden;rounded=1;strokeColor=#000000;" vertex="1" parent="m3ZcnLC1-LOeYScbA6cV-172">
          <mxGeometry width="80" height="30" as="geometry">
            <mxRectangle width="80" height="30" as="alternateBounds" />
          </mxGeometry>
        </mxCell>
        <mxCell id="m3ZcnLC1-LOeYScbA6cV-174" value="bigint(20)" style="shape=partialRectangle;connectable=0;fillColor=none;top=0;left=0;bottom=0;right=0;align=left;spacingLeft=6;fontStyle=0;overflow=hidden;rounded=1;strokeColor=#000000;" vertex="1" parent="m3ZcnLC1-LOeYScbA6cV-172">
          <mxGeometry x="80" width="110" height="30" as="geometry">
            <mxRectangle width="110" height="30" as="alternateBounds" />
          </mxGeometry>
        </mxCell>
        <mxCell id="m3ZcnLC1-LOeYScbA6cV-123" value="" style="shape=tableRow;horizontal=0;startSize=0;swimlaneHead=0;swimlaneBody=0;fillColor=none;collapsible=0;dropTarget=0;points=[[0,0.5],[1,0.5]];portConstraint=eastwest;top=0;left=0;right=0;bottom=0;rounded=1;strokeColor=#000000;" vertex="1" parent="m3ZcnLC1-LOeYScbA6cV-114">
          <mxGeometry y="60" width="190" height="30" as="geometry" />
        </mxCell>
        <mxCell id="m3ZcnLC1-LOeYScbA6cV-124" value="version" style="shape=partialRectangle;connectable=0;fillColor=none;top=0;left=0;bottom=0;right=0;fontStyle=0;overflow=hidden;rounded=1;strokeColor=#000000;" vertex="1" parent="m3ZcnLC1-LOeYScbA6cV-123">
          <mxGeometry width="80" height="30" as="geometry">
            <mxRectangle width="80" height="30" as="alternateBounds" />
          </mxGeometry>
        </mxCell>
        <mxCell id="m3ZcnLC1-LOeYScbA6cV-125" value="varchar(64)" style="shape=partialRectangle;connectable=0;fillColor=none;top=0;left=0;bottom=0;right=0;align=left;spacingLeft=6;fontStyle=0;overflow=hidden;rounded=1;strokeColor=#000000;" vertex="1" parent="m3ZcnLC1-LOeYScbA6cV-123">
          <mxGeometry x="80" width="110" height="30" as="geometry">
            <mxRectangle width="110" height="30" as="alternateBounds" />
          </mxGeometry>
        </mxCell>
        <mxCell id="m3ZcnLC1-LOeYScbA6cV-141" value="" style="shape=tableRow;horizontal=0;startSize=0;swimlaneHead=0;swimlaneBody=0;fillColor=none;collapsible=0;dropTarget=0;points=[[0,0.5],[1,0.5]];portConstraint=eastwest;top=0;left=0;right=0;bottom=0;rounded=1;strokeColor=#000000;" vertex="1" parent="m3ZcnLC1-LOeYScbA6cV-114">
          <mxGeometry y="90" width="190" height="30" as="geometry" />
        </mxCell>
        <mxCell id="m3ZcnLC1-LOeYScbA6cV-142" value="schema" style="shape=partialRectangle;connectable=0;fillColor=none;top=0;left=0;bottom=0;right=0;fontStyle=0;overflow=hidden;rounded=1;strokeColor=#000000;" vertex="1" parent="m3ZcnLC1-LOeYScbA6cV-141">
          <mxGeometry width="80" height="30" as="geometry">
            <mxRectangle width="80" height="30" as="alternateBounds" />
          </mxGeometry>
        </mxCell>
        <mxCell id="m3ZcnLC1-LOeYScbA6cV-143" value="varchar(256)" style="shape=partialRectangle;connectable=0;fillColor=none;top=0;left=0;bottom=0;right=0;align=left;spacingLeft=6;fontStyle=0;overflow=hidden;rounded=1;strokeColor=#000000;" vertex="1" parent="m3ZcnLC1-LOeYScbA6cV-141">
          <mxGeometry x="80" width="110" height="30" as="geometry">
            <mxRectangle width="110" height="30" as="alternateBounds" />
          </mxGeometry>
        </mxCell>
        <mxCell id="m3ZcnLC1-LOeYScbA6cV-151" value="" style="shape=tableRow;horizontal=0;startSize=0;swimlaneHead=0;swimlaneBody=0;fillColor=none;collapsible=0;dropTarget=0;points=[[0,0.5],[1,0.5]];portConstraint=eastwest;top=0;left=0;right=0;bottom=0;rounded=1;strokeColor=#000000;" vertex="1" parent="m3ZcnLC1-LOeYScbA6cV-114">
          <mxGeometry y="120" width="190" height="30" as="geometry" />
        </mxCell>
        <mxCell id="m3ZcnLC1-LOeYScbA6cV-152" value="props" style="shape=partialRectangle;connectable=0;fillColor=none;top=0;left=0;bottom=0;right=0;fontStyle=0;overflow=hidden;rounded=1;strokeColor=#000000;" vertex="1" parent="m3ZcnLC1-LOeYScbA6cV-151">
          <mxGeometry width="80" height="30" as="geometry">
            <mxRectangle width="80" height="30" as="alternateBounds" />
          </mxGeometry>
        </mxCell>
        <mxCell id="m3ZcnLC1-LOeYScbA6cV-153" value="varchar(256)" style="shape=partialRectangle;connectable=0;fillColor=none;top=0;left=0;bottom=0;right=0;align=left;spacingLeft=6;fontStyle=0;overflow=hidden;rounded=1;strokeColor=#000000;" vertex="1" parent="m3ZcnLC1-LOeYScbA6cV-151">
          <mxGeometry x="80" width="110" height="30" as="geometry">
            <mxRectangle width="110" height="30" as="alternateBounds" />
          </mxGeometry>
        </mxCell>
        <mxCell id="m3ZcnLC1-LOeYScbA6cV-155" value="" style="shape=tableRow;horizontal=0;startSize=0;swimlaneHead=0;swimlaneBody=0;fillColor=none;collapsible=0;dropTarget=0;points=[[0,0.5],[1,0.5]];portConstraint=eastwest;top=0;left=0;right=0;bottom=0;rounded=1;strokeColor=#000000;" vertex="1" parent="m3ZcnLC1-LOeYScbA6cV-114">
          <mxGeometry y="150" width="190" height="30" as="geometry" />
        </mxCell>
        <mxCell id="m3ZcnLC1-LOeYScbA6cV-156" value="events" style="shape=partialRectangle;connectable=0;fillColor=none;top=0;left=0;bottom=0;right=0;fontStyle=0;overflow=hidden;rounded=1;strokeColor=#000000;" vertex="1" parent="m3ZcnLC1-LOeYScbA6cV-155">
          <mxGeometry width="80" height="30" as="geometry">
            <mxRectangle width="80" height="30" as="alternateBounds" />
          </mxGeometry>
        </mxCell>
        <mxCell id="m3ZcnLC1-LOeYScbA6cV-157" value="varchar(256)" style="shape=partialRectangle;connectable=0;fillColor=none;top=0;left=0;bottom=0;right=0;align=left;spacingLeft=6;fontStyle=0;overflow=hidden;rounded=1;strokeColor=#000000;" vertex="1" parent="m3ZcnLC1-LOeYScbA6cV-155">
          <mxGeometry x="80" width="110" height="30" as="geometry">
            <mxRectangle width="110" height="30" as="alternateBounds" />
          </mxGeometry>
        </mxCell>
        <mxCell id="m3ZcnLC1-LOeYScbA6cV-159" value="" style="shape=tableRow;horizontal=0;startSize=0;swimlaneHead=0;swimlaneBody=0;fillColor=none;collapsible=0;dropTarget=0;points=[[0,0.5],[1,0.5]];portConstraint=eastwest;top=0;left=0;right=0;bottom=0;rounded=1;strokeColor=#000000;" vertex="1" parent="m3ZcnLC1-LOeYScbA6cV-114">
          <mxGeometry y="180" width="190" height="30" as="geometry" />
        </mxCell>
        <mxCell id="m3ZcnLC1-LOeYScbA6cV-160" value="styles" style="shape=partialRectangle;connectable=0;fillColor=none;top=0;left=0;bottom=0;right=0;fontStyle=0;overflow=hidden;rounded=1;strokeColor=#000000;" vertex="1" parent="m3ZcnLC1-LOeYScbA6cV-159">
          <mxGeometry width="80" height="30" as="geometry">
            <mxRectangle width="80" height="30" as="alternateBounds" />
          </mxGeometry>
        </mxCell>
        <mxCell id="m3ZcnLC1-LOeYScbA6cV-161" value="varchar(256)" style="shape=partialRectangle;connectable=0;fillColor=none;top=0;left=0;bottom=0;right=0;align=left;spacingLeft=6;fontStyle=0;overflow=hidden;rounded=1;strokeColor=#000000;" vertex="1" parent="m3ZcnLC1-LOeYScbA6cV-159">
          <mxGeometry x="80" width="110" height="30" as="geometry">
            <mxRectangle width="110" height="30" as="alternateBounds" />
          </mxGeometry>
        </mxCell>
        <mxCell id="m3ZcnLC1-LOeYScbA6cV-164" value="" style="shape=tableRow;horizontal=0;startSize=0;swimlaneHead=0;swimlaneBody=0;fillColor=none;collapsible=0;dropTarget=0;points=[[0,0.5],[1,0.5]];portConstraint=eastwest;top=0;left=0;right=0;bottom=0;rounded=1;strokeColor=#000000;" vertex="1" parent="m3ZcnLC1-LOeYScbA6cV-114">
          <mxGeometry y="210" width="190" height="40" as="geometry" />
        </mxCell>
        <mxCell id="m3ZcnLC1-LOeYScbA6cV-165" value="type" style="shape=partialRectangle;connectable=0;fillColor=none;top=0;left=0;bottom=0;right=0;fontStyle=0;overflow=hidden;rounded=1;strokeColor=#000000;" vertex="1" parent="m3ZcnLC1-LOeYScbA6cV-164">
          <mxGeometry width="80" height="40" as="geometry">
            <mxRectangle width="80" height="40" as="alternateBounds" />
          </mxGeometry>
        </mxCell>
        <mxCell id="m3ZcnLC1-LOeYScbA6cV-166" value="int" style="shape=partialRectangle;connectable=0;fillColor=none;top=0;left=0;bottom=0;right=0;align=left;spacingLeft=6;fontStyle=0;overflow=hidden;rounded=1;strokeColor=#000000;" vertex="1" parent="m3ZcnLC1-LOeYScbA6cV-164">
          <mxGeometry x="80" width="110" height="40" as="geometry">
            <mxRectangle width="110" height="40" as="alternateBounds" />
          </mxGeometry>
        </mxCell>
        <mxCell id="m3ZcnLC1-LOeYScbA6cV-193" value="" style="shape=tableRow;horizontal=0;startSize=0;swimlaneHead=0;swimlaneBody=0;fillColor=none;collapsible=0;dropTarget=0;points=[[0,0.5],[1,0.5]];portConstraint=eastwest;top=0;left=0;right=0;bottom=0;rounded=1;strokeColor=#000000;" vertex="1" parent="m3ZcnLC1-LOeYScbA6cV-114">
          <mxGeometry y="250" width="190" height="30" as="geometry" />
        </mxCell>
        <mxCell id="m3ZcnLC1-LOeYScbA6cV-194" value="status" style="shape=partialRectangle;connectable=0;fillColor=none;top=0;left=0;bottom=0;right=0;fontStyle=0;overflow=hidden;rounded=1;strokeColor=#000000;" vertex="1" parent="m3ZcnLC1-LOeYScbA6cV-193">
          <mxGeometry width="80" height="30" as="geometry">
            <mxRectangle width="80" height="30" as="alternateBounds" />
          </mxGeometry>
        </mxCell>
        <mxCell id="m3ZcnLC1-LOeYScbA6cV-195" value="int" style="shape=partialRectangle;connectable=0;fillColor=none;top=0;left=0;bottom=0;right=0;align=left;spacingLeft=6;fontStyle=0;overflow=hidden;rounded=1;strokeColor=#000000;" vertex="1" parent="m3ZcnLC1-LOeYScbA6cV-193">
          <mxGeometry x="80" width="110" height="30" as="geometry">
            <mxRectangle width="110" height="30" as="alternateBounds" />
          </mxGeometry>
        </mxCell>
        <mxCell id="m3ZcnLC1-LOeYScbA6cV-223" value="" style="shape=tableRow;horizontal=0;startSize=0;swimlaneHead=0;swimlaneBody=0;fillColor=none;collapsible=0;dropTarget=0;points=[[0,0.5],[1,0.5]];portConstraint=eastwest;top=0;left=0;right=0;bottom=0;rounded=1;strokeColor=#000000;" vertex="1" parent="m3ZcnLC1-LOeYScbA6cV-114">
          <mxGeometry y="280" width="190" height="30" as="geometry" />
        </mxCell>
        <mxCell id="m3ZcnLC1-LOeYScbA6cV-224" value="url" style="shape=partialRectangle;connectable=0;fillColor=none;top=0;left=0;bottom=0;right=0;fontStyle=0;overflow=hidden;rounded=1;strokeColor=#000000;" vertex="1" parent="m3ZcnLC1-LOeYScbA6cV-223">
          <mxGeometry width="80" height="30" as="geometry">
            <mxRectangle width="80" height="30" as="alternateBounds" />
          </mxGeometry>
        </mxCell>
        <mxCell id="m3ZcnLC1-LOeYScbA6cV-225" value="varchar(256)" style="shape=partialRectangle;connectable=0;fillColor=none;top=0;left=0;bottom=0;right=0;align=left;spacingLeft=6;fontStyle=0;overflow=hidden;rounded=1;strokeColor=#000000;" vertex="1" parent="m3ZcnLC1-LOeYScbA6cV-223">
          <mxGeometry x="80" width="110" height="30" as="geometry">
            <mxRectangle width="110" height="30" as="alternateBounds" />
          </mxGeometry>
        </mxCell>
        <mxCell id="m3ZcnLC1-LOeYScbA6cV-230" value="" style="shape=tableRow;horizontal=0;startSize=0;swimlaneHead=0;swimlaneBody=0;fillColor=none;collapsible=0;dropTarget=0;points=[[0,0.5],[1,0.5]];portConstraint=eastwest;top=0;left=0;right=0;bottom=0;rounded=1;strokeColor=#000000;" vertex="1" parent="m3ZcnLC1-LOeYScbA6cV-114">
          <mxGeometry y="310" width="190" height="30" as="geometry" />
        </mxCell>
        <mxCell id="m3ZcnLC1-LOeYScbA6cV-231" value="cuser" style="shape=partialRectangle;connectable=0;fillColor=none;top=0;left=0;bottom=0;right=0;fontStyle=0;overflow=hidden;rounded=1;strokeColor=#000000;" vertex="1" parent="m3ZcnLC1-LOeYScbA6cV-230">
          <mxGeometry width="80" height="30" as="geometry">
            <mxRectangle width="80" height="30" as="alternateBounds" />
          </mxGeometry>
        </mxCell>
        <mxCell id="m3ZcnLC1-LOeYScbA6cV-232" value="varchar(64)" style="shape=partialRectangle;connectable=0;fillColor=none;top=0;left=0;bottom=0;right=0;align=left;spacingLeft=6;fontStyle=0;overflow=hidden;rounded=1;strokeColor=#000000;" vertex="1" parent="m3ZcnLC1-LOeYScbA6cV-230">
          <mxGeometry x="80" width="110" height="30" as="geometry">
            <mxRectangle width="110" height="30" as="alternateBounds" />
          </mxGeometry>
        </mxCell>
        <mxCell id="m3ZcnLC1-LOeYScbA6cV-238" value="" style="shape=tableRow;horizontal=0;startSize=0;swimlaneHead=0;swimlaneBody=0;fillColor=none;collapsible=0;dropTarget=0;points=[[0,0.5],[1,0.5]];portConstraint=eastwest;top=0;left=0;right=0;bottom=0;rounded=1;strokeColor=#000000;" vertex="1" parent="m3ZcnLC1-LOeYScbA6cV-114">
          <mxGeometry y="340" width="190" height="30" as="geometry" />
        </mxCell>
        <mxCell id="m3ZcnLC1-LOeYScbA6cV-239" value="ctime" style="shape=partialRectangle;connectable=0;fillColor=none;top=0;left=0;bottom=0;right=0;fontStyle=0;overflow=hidden;rounded=1;strokeColor=#000000;" vertex="1" parent="m3ZcnLC1-LOeYScbA6cV-238">
          <mxGeometry width="80" height="30" as="geometry">
            <mxRectangle width="80" height="30" as="alternateBounds" />
          </mxGeometry>
        </mxCell>
        <mxCell id="m3ZcnLC1-LOeYScbA6cV-240" value="timestamp" style="shape=partialRectangle;connectable=0;fillColor=none;top=0;left=0;bottom=0;right=0;align=left;spacingLeft=6;fontStyle=0;overflow=hidden;rounded=1;strokeColor=#000000;" vertex="1" parent="m3ZcnLC1-LOeYScbA6cV-238">
          <mxGeometry x="80" width="110" height="30" as="geometry">
            <mxRectangle width="110" height="30" as="alternateBounds" />
          </mxGeometry>
        </mxCell>
        <mxCell id="m3ZcnLC1-LOeYScbA6cV-106" value="场景 (material_scene)" style="swimlane;childLayout=stackLayout;horizontal=1;startSize=30;horizontalStack=0;rounded=1;fontSize=14;fontStyle=0;strokeWidth=2;resizeParent=0;resizeLast=1;shadow=0;dashed=0;align=center;fillColor=#FFF4C3;" vertex="1" parent="1">
          <mxGeometry x="550" y="-176" width="160" height="340" as="geometry" />
        </mxCell>
        <mxCell id="m3ZcnLC1-LOeYScbA6cV-118" value="" style="shape=table;startSize=0;container=1;collapsible=1;childLayout=tableLayout;fixedRows=1;rowLines=0;fontStyle=0;align=center;resizeLast=1;strokeColor=none;fillColor=none;collapsible=0;rounded=1;" vertex="1" parent="m3ZcnLC1-LOeYScbA6cV-106">
          <mxGeometry y="30" width="160" height="310" as="geometry" />
        </mxCell>
        <mxCell id="m3ZcnLC1-LOeYScbA6cV-119" value="" style="shape=tableRow;horizontal=0;startSize=0;swimlaneHead=0;swimlaneBody=0;fillColor=none;collapsible=0;dropTarget=0;points=[[0,0.5],[1,0.5]];portConstraint=eastwest;top=0;left=0;right=0;bottom=0;rounded=1;strokeColor=#000000;" vertex="1" parent="m3ZcnLC1-LOeYScbA6cV-118">
          <mxGeometry width="160" height="30" as="geometry" />
        </mxCell>
        <mxCell id="m3ZcnLC1-LOeYScbA6cV-120" value="ID" style="shape=partialRectangle;connectable=0;fillColor=none;top=0;left=0;bottom=0;right=0;fontStyle=0;overflow=hidden;rounded=1;strokeColor=#000000;" vertex="1" parent="m3ZcnLC1-LOeYScbA6cV-119">
          <mxGeometry width="80" height="30" as="geometry">
            <mxRectangle width="80" height="30" as="alternateBounds" />
          </mxGeometry>
        </mxCell>
        <mxCell id="m3ZcnLC1-LOeYScbA6cV-121" value="bigint(20)" style="shape=partialRectangle;connectable=0;fillColor=none;top=0;left=0;bottom=0;right=0;align=left;spacingLeft=6;fontStyle=0;overflow=hidden;rounded=1;strokeColor=#000000;" vertex="1" parent="m3ZcnLC1-LOeYScbA6cV-119">
          <mxGeometry x="80" width="80" height="30" as="geometry">
            <mxRectangle width="80" height="30" as="alternateBounds" />
          </mxGeometry>
        </mxCell>
        <mxCell id="m3ZcnLC1-LOeYScbA6cV-168" value="" style="shape=tableRow;horizontal=0;startSize=0;swimlaneHead=0;swimlaneBody=0;fillColor=none;collapsible=0;dropTarget=0;points=[[0,0.5],[1,0.5]];portConstraint=eastwest;top=0;left=0;right=0;bottom=0;rounded=1;strokeColor=#000000;" vertex="1" parent="m3ZcnLC1-LOeYScbA6cV-118">
          <mxGeometry y="30" width="160" height="30" as="geometry" />
        </mxCell>
        <mxCell id="m3ZcnLC1-LOeYScbA6cV-169" value="material_id" style="shape=partialRectangle;connectable=0;fillColor=none;top=0;left=0;bottom=0;right=0;fontStyle=0;overflow=hidden;rounded=1;strokeColor=#000000;" vertex="1" parent="m3ZcnLC1-LOeYScbA6cV-168">
          <mxGeometry width="80" height="30" as="geometry">
            <mxRectangle width="80" height="30" as="alternateBounds" />
          </mxGeometry>
        </mxCell>
        <mxCell id="m3ZcnLC1-LOeYScbA6cV-170" value="bigint(20)" style="shape=partialRectangle;connectable=0;fillColor=none;top=0;left=0;bottom=0;right=0;align=left;spacingLeft=6;fontStyle=0;overflow=hidden;rounded=1;strokeColor=#000000;" vertex="1" parent="m3ZcnLC1-LOeYScbA6cV-168">
          <mxGeometry x="80" width="80" height="30" as="geometry">
            <mxRectangle width="80" height="30" as="alternateBounds" />
          </mxGeometry>
        </mxCell>
        <mxCell id="m3ZcnLC1-LOeYScbA6cV-128" value="" style="shape=tableRow;horizontal=0;startSize=0;swimlaneHead=0;swimlaneBody=0;fillColor=none;collapsible=0;dropTarget=0;points=[[0,0.5],[1,0.5]];portConstraint=eastwest;top=0;left=0;right=0;bottom=0;rounded=1;strokeColor=#000000;" vertex="1" parent="m3ZcnLC1-LOeYScbA6cV-118">
          <mxGeometry y="60" width="160" height="30" as="geometry" />
        </mxCell>
        <mxCell id="m3ZcnLC1-LOeYScbA6cV-129" value="max_version" style="shape=partialRectangle;connectable=0;fillColor=none;top=0;left=0;bottom=0;right=0;fontStyle=0;overflow=hidden;rounded=1;strokeColor=#000000;" vertex="1" parent="m3ZcnLC1-LOeYScbA6cV-128">
          <mxGeometry width="80" height="30" as="geometry">
            <mxRectangle width="80" height="30" as="alternateBounds" />
          </mxGeometry>
        </mxCell>
        <mxCell id="m3ZcnLC1-LOeYScbA6cV-130" value="int(20)" style="shape=partialRectangle;connectable=0;fillColor=none;top=0;left=0;bottom=0;right=0;align=left;spacingLeft=6;fontStyle=0;overflow=hidden;rounded=1;strokeColor=#000000;" vertex="1" parent="m3ZcnLC1-LOeYScbA6cV-128">
          <mxGeometry x="80" width="80" height="30" as="geometry">
            <mxRectangle width="80" height="30" as="alternateBounds" />
          </mxGeometry>
        </mxCell>
        <mxCell id="m3ZcnLC1-LOeYScbA6cV-242" value="" style="shape=tableRow;horizontal=0;startSize=0;swimlaneHead=0;swimlaneBody=0;fillColor=none;collapsible=0;dropTarget=0;points=[[0,0.5],[1,0.5]];portConstraint=eastwest;top=0;left=0;right=0;bottom=0;rounded=1;strokeColor=#000000;" vertex="1" parent="m3ZcnLC1-LOeYScbA6cV-118">
          <mxGeometry y="90" width="160" height="30" as="geometry" />
        </mxCell>
        <mxCell id="m3ZcnLC1-LOeYScbA6cV-243" value="name" style="shape=partialRectangle;connectable=0;fillColor=none;top=0;left=0;bottom=0;right=0;fontStyle=0;overflow=hidden;rounded=1;strokeColor=#000000;" vertex="1" parent="m3ZcnLC1-LOeYScbA6cV-242">
          <mxGeometry width="80" height="30" as="geometry">
            <mxRectangle width="80" height="30" as="alternateBounds" />
          </mxGeometry>
        </mxCell>
        <mxCell id="m3ZcnLC1-LOeYScbA6cV-244" value="varchar(64)" style="shape=partialRectangle;connectable=0;fillColor=none;top=0;left=0;bottom=0;right=0;align=left;spacingLeft=6;fontStyle=0;overflow=hidden;rounded=1;strokeColor=#000000;" vertex="1" parent="m3ZcnLC1-LOeYScbA6cV-242">
          <mxGeometry x="80" width="80" height="30" as="geometry">
            <mxRectangle width="80" height="30" as="alternateBounds" />
          </mxGeometry>
        </mxCell>
        <mxCell id="m3ZcnLC1-LOeYScbA6cV-245" value="" style="shape=tableRow;horizontal=0;startSize=0;swimlaneHead=0;swimlaneBody=0;fillColor=none;collapsible=0;dropTarget=0;points=[[0,0.5],[1,0.5]];portConstraint=eastwest;top=0;left=0;right=0;bottom=0;rounded=1;strokeColor=#000000;" vertex="1" parent="m3ZcnLC1-LOeYScbA6cV-118">
          <mxGeometry y="120" width="160" height="30" as="geometry" />
        </mxCell>
        <mxCell id="m3ZcnLC1-LOeYScbA6cV-246" value="desc" style="shape=partialRectangle;connectable=0;fillColor=none;top=0;left=0;bottom=0;right=0;fontStyle=0;overflow=hidden;rounded=1;strokeColor=#000000;" vertex="1" parent="m3ZcnLC1-LOeYScbA6cV-245">
          <mxGeometry width="80" height="30" as="geometry">
            <mxRectangle width="80" height="30" as="alternateBounds" />
          </mxGeometry>
        </mxCell>
        <mxCell id="m3ZcnLC1-LOeYScbA6cV-247" value="varchar(256)" style="shape=partialRectangle;connectable=0;fillColor=none;top=0;left=0;bottom=0;right=0;align=left;spacingLeft=6;fontStyle=0;overflow=hidden;rounded=1;strokeColor=#000000;" vertex="1" parent="m3ZcnLC1-LOeYScbA6cV-245">
          <mxGeometry x="80" width="80" height="30" as="geometry">
            <mxRectangle width="80" height="30" as="alternateBounds" />
          </mxGeometry>
        </mxCell>
        <mxCell id="m3ZcnLC1-LOeYScbA6cV-148" value="" style="shape=tableRow;horizontal=0;startSize=0;swimlaneHead=0;swimlaneBody=0;fillColor=none;collapsible=0;dropTarget=0;points=[[0,0.5],[1,0.5]];portConstraint=eastwest;top=0;left=0;right=0;bottom=0;rounded=1;strokeColor=#000000;" vertex="1" parent="m3ZcnLC1-LOeYScbA6cV-118">
          <mxGeometry y="150" width="160" height="30" as="geometry" />
        </mxCell>
        <mxCell id="m3ZcnLC1-LOeYScbA6cV-149" value="min_version" style="shape=partialRectangle;connectable=0;fillColor=none;top=0;left=0;bottom=0;right=0;fontStyle=0;overflow=hidden;rounded=1;strokeColor=#000000;" vertex="1" parent="m3ZcnLC1-LOeYScbA6cV-148">
          <mxGeometry width="80" height="30" as="geometry">
            <mxRectangle width="80" height="30" as="alternateBounds" />
          </mxGeometry>
        </mxCell>
        <mxCell id="m3ZcnLC1-LOeYScbA6cV-150" value="int(20)" style="shape=partialRectangle;connectable=0;fillColor=none;top=0;left=0;bottom=0;right=0;align=left;spacingLeft=6;fontStyle=0;overflow=hidden;rounded=1;strokeColor=#000000;" vertex="1" parent="m3ZcnLC1-LOeYScbA6cV-148">
          <mxGeometry x="80" width="80" height="30" as="geometry">
            <mxRectangle width="80" height="30" as="alternateBounds" />
          </mxGeometry>
        </mxCell>
        <mxCell id="m3ZcnLC1-LOeYScbA6cV-145" value="" style="shape=tableRow;horizontal=0;startSize=0;swimlaneHead=0;swimlaneBody=0;fillColor=none;collapsible=0;dropTarget=0;points=[[0,0.5],[1,0.5]];portConstraint=eastwest;top=0;left=0;right=0;bottom=0;rounded=1;strokeColor=#000000;" vertex="1" parent="m3ZcnLC1-LOeYScbA6cV-118">
          <mxGeometry y="180" width="160" height="30" as="geometry" />
        </mxCell>
        <mxCell id="m3ZcnLC1-LOeYScbA6cV-146" value="props" style="shape=partialRectangle;connectable=0;fillColor=none;top=0;left=0;bottom=0;right=0;fontStyle=0;overflow=hidden;rounded=1;strokeColor=#000000;" vertex="1" parent="m3ZcnLC1-LOeYScbA6cV-145">
          <mxGeometry width="80" height="30" as="geometry">
            <mxRectangle width="80" height="30" as="alternateBounds" />
          </mxGeometry>
        </mxCell>
        <mxCell id="m3ZcnLC1-LOeYScbA6cV-147" value="varchar(256)" style="shape=partialRectangle;connectable=0;fillColor=none;top=0;left=0;bottom=0;right=0;align=left;spacingLeft=6;fontStyle=0;overflow=hidden;rounded=1;strokeColor=#000000;" vertex="1" parent="m3ZcnLC1-LOeYScbA6cV-145">
          <mxGeometry x="80" width="80" height="30" as="geometry">
            <mxRectangle width="80" height="30" as="alternateBounds" />
          </mxGeometry>
        </mxCell>
        <mxCell id="m3ZcnLC1-LOeYScbA6cV-185" value="" style="shape=tableRow;horizontal=0;startSize=0;swimlaneHead=0;swimlaneBody=0;fillColor=none;collapsible=0;dropTarget=0;points=[[0,0.5],[1,0.5]];portConstraint=eastwest;top=0;left=0;right=0;bottom=0;rounded=1;strokeColor=#000000;" vertex="1" parent="m3ZcnLC1-LOeYScbA6cV-118">
          <mxGeometry y="210" width="160" height="30" as="geometry" />
        </mxCell>
        <mxCell id="m3ZcnLC1-LOeYScbA6cV-186" value="status" style="shape=partialRectangle;connectable=0;fillColor=none;top=0;left=0;bottom=0;right=0;fontStyle=0;overflow=hidden;rounded=1;strokeColor=#000000;" vertex="1" parent="m3ZcnLC1-LOeYScbA6cV-185">
          <mxGeometry width="80" height="30" as="geometry">
            <mxRectangle width="80" height="30" as="alternateBounds" />
          </mxGeometry>
        </mxCell>
        <mxCell id="m3ZcnLC1-LOeYScbA6cV-187" value="int" style="shape=partialRectangle;connectable=0;fillColor=none;top=0;left=0;bottom=0;right=0;align=left;spacingLeft=6;fontStyle=0;overflow=hidden;rounded=1;strokeColor=#000000;" vertex="1" parent="m3ZcnLC1-LOeYScbA6cV-185">
          <mxGeometry x="80" width="80" height="30" as="geometry">
            <mxRectangle width="80" height="30" as="alternateBounds" />
          </mxGeometry>
        </mxCell>
        <mxCell id="m3ZcnLC1-LOeYScbA6cV-249" value="" style="shape=tableRow;horizontal=0;startSize=0;swimlaneHead=0;swimlaneBody=0;fillColor=none;collapsible=0;dropTarget=0;points=[[0,0.5],[1,0.5]];portConstraint=eastwest;top=0;left=0;right=0;bottom=0;rounded=1;strokeColor=#000000;" vertex="1" parent="m3ZcnLC1-LOeYScbA6cV-118">
          <mxGeometry y="240" width="160" height="30" as="geometry" />
        </mxCell>
        <mxCell id="m3ZcnLC1-LOeYScbA6cV-250" value="cuser" style="shape=partialRectangle;connectable=0;fillColor=none;top=0;left=0;bottom=0;right=0;fontStyle=0;overflow=hidden;rounded=1;strokeColor=#000000;" vertex="1" parent="m3ZcnLC1-LOeYScbA6cV-249">
          <mxGeometry width="80" height="30" as="geometry">
            <mxRectangle width="80" height="30" as="alternateBounds" />
          </mxGeometry>
        </mxCell>
        <mxCell id="m3ZcnLC1-LOeYScbA6cV-251" value="varchar(64)" style="shape=partialRectangle;connectable=0;fillColor=none;top=0;left=0;bottom=0;right=0;align=left;spacingLeft=6;fontStyle=0;overflow=hidden;rounded=1;strokeColor=#000000;" vertex="1" parent="m3ZcnLC1-LOeYScbA6cV-249">
          <mxGeometry x="80" width="80" height="30" as="geometry">
            <mxRectangle width="80" height="30" as="alternateBounds" />
          </mxGeometry>
        </mxCell>
        <mxCell id="m3ZcnLC1-LOeYScbA6cV-253" value="" style="shape=tableRow;horizontal=0;startSize=0;swimlaneHead=0;swimlaneBody=0;fillColor=none;collapsible=0;dropTarget=0;points=[[0,0.5],[1,0.5]];portConstraint=eastwest;top=0;left=0;right=0;bottom=0;rounded=1;strokeColor=#000000;" vertex="1" parent="m3ZcnLC1-LOeYScbA6cV-118">
          <mxGeometry y="270" width="160" height="30" as="geometry" />
        </mxCell>
        <mxCell id="m3ZcnLC1-LOeYScbA6cV-254" value="ctime" style="shape=partialRectangle;connectable=0;fillColor=none;top=0;left=0;bottom=0;right=0;fontStyle=0;overflow=hidden;rounded=1;strokeColor=#000000;" vertex="1" parent="m3ZcnLC1-LOeYScbA6cV-253">
          <mxGeometry width="80" height="30" as="geometry">
            <mxRectangle width="80" height="30" as="alternateBounds" />
          </mxGeometry>
        </mxCell>
        <mxCell id="m3ZcnLC1-LOeYScbA6cV-255" value="timestamp" style="shape=partialRectangle;connectable=0;fillColor=none;top=0;left=0;bottom=0;right=0;align=left;spacingLeft=6;fontStyle=0;overflow=hidden;rounded=1;strokeColor=#000000;" vertex="1" parent="m3ZcnLC1-LOeYScbA6cV-253">
          <mxGeometry x="80" width="80" height="30" as="geometry">
            <mxRectangle width="80" height="30" as="alternateBounds" />
          </mxGeometry>
        </mxCell>
        <mxCell id="m3ZcnLC1-LOeYScbA6cV-261" value="" style="edgeStyle=entityRelationEdgeStyle;fontSize=12;html=1;endArrow=ERzeroToMany;startArrow=ERmandOne;rounded=0;elbow=vertical;exitX=0.991;exitY=0.3;exitDx=0;exitDy=0;exitPerimeter=0;entryX=0;entryY=0.5;entryDx=0;entryDy=0;" edge="1" parent="1" source="m3ZcnLC1-LOeYScbA6cV-205" target="m3ZcnLC1-LOeYScbA6cV-242">
          <mxGeometry width="100" height="100" relative="1" as="geometry">
            <mxPoint x="440" y="50" as="sourcePoint" />
            <mxPoint x="540" y="-50" as="targetPoint" />
          </mxGeometry>
        </mxCell>
        <mxCell id="m3ZcnLC1-LOeYScbA6cV-262" value="" style="fontSize=12;html=1;endArrow=ERzeroToMany;startArrow=ERmandOne;rounded=0;elbow=vertical;entryX=1;entryY=0.5;entryDx=0;entryDy=0;exitX=0;exitY=0.5;exitDx=0;exitDy=0;" edge="1" parent="1">
          <mxGeometry width="100" height="100" relative="1" as="geometry">
            <mxPoint x="280" y="-40" as="sourcePoint" />
            <mxPoint x="170" y="-40" as="targetPoint" />
          </mxGeometry>
        </mxCell>
      </root>
    </mxGraphModel>
  </diagram>
</mxfile>
